<?xml version="1.0" encoding="utf-8"?>
<!-- Generator: Adobe Illustrator 25.0.1, SVG Export Plug-In . SVG Version: 6.00 Build 0)  -->
<svg version="1.1" id="图层_1" xmlns="http://www.w3.org/2000/svg" xmlns:xlink="http://www.w3.org/1999/xlink" x="0px" y="0px"
	 viewBox="0 0 24 24" style="enable-background:new 0 0 24 24;" xml:space="preserve">
<style type="text/css">
	.st0{fill:#FCFCFC;}
	.st1{fill:none;stroke:#9B9B9B;stroke-width:0.01;stroke-miterlimit:10;}
	.st2{fill:none;stroke:#B26D4F;stroke-width:0.05;stroke-miterlimit:10;}
	.st3{clip-path:url(#SVGID_1_);}
	.st4{fill:#303C42;}
	.st5{fill:#D3E291;}
	.st6{fill:#242424;}
	.st7{fill:none;stroke:#000000;stroke-linecap:round;stroke-miterlimit:10;}
	.st8{fill:none;stroke:#000000;stroke-width:0.8;stroke-linecap:round;stroke-miterlimit:10;}
	.st9{fill:none;stroke:#000000;stroke-miterlimit:10;}
	.st10{fill:none;stroke:#000000;stroke-width:0.5;stroke-linecap:round;stroke-miterlimit:10;}
	.st11{clip-path:url(#SVGID_4_);fill:#4D4D4D;}
	.st12{fill:#FFFFFF;}
	.st13{fill:#606060;}
	.st14{fill:#151515;}
	.st15{fill:#212121;}
	.st16{fill:#9B9B9B;}
</style>
<g>
	<path d="M9.98,5c0.28,0,0.5-0.22,0.5-0.5c0-0.83,0.67-1.5,1.5-1.5s1.5,0.67,1.5,1.5c0,0.8-0.63,1.46-1.43,1.5
		c-0.32,0.02-0.57,0.28-0.57,0.59V8c0,0.28,0.22,0.5,0.5,0.5s0.5-0.22,0.5-0.5V6.95c1.15-0.23,2-1.24,2-2.45
		c0-1.38-1.12-2.5-2.5-2.5s-2.5,1.12-2.5,2.5C9.48,4.78,9.7,5,9.98,5z"/>
	<path d="M21.94,10.79l-0.27-0.18c0,0-5.88-2.6-6.78-3.01c-0.17-0.08-0.37-0.07-0.54,0.03l-0.27,0.21l-0.02,0.26
		C14,8.88,13.08,9.5,11.98,9.5S9.97,8.88,9.9,8.09C9.89,7.9,9.78,7.72,9.61,7.63l-0.3-0.13L9.07,7.6c-0.9,0.41-6.76,3.01-6.76,3.01
		l-0.09,0.05c-0.14,0.1-0.22,0.25-0.24,0.41l0,0.29l2.79,3.29c0.11,0.13,0.27,0.21,0.44,0.21l0.27-0.03l1.49-1.33v6.89
		c0,0.33,0.27,0.6,0.6,0.6h8.8c0.33,0,0.6-0.27,0.6-0.6v-6.91l1.36,1.2c0.12,0.12,0.3,0.2,0.45,0.18l0.29-0.04l2.79-3.29l0.17-0.24
		L21.94,10.79z M18.72,13.7l-1.72-1.52c-0.17-0.18-0.42-0.23-0.66-0.14c-0.23,0.09-0.38,0.31-0.38,0.56V20h-8v-7.39
		c0-0.25-0.15-0.46-0.37-0.56c-0.23-0.09-0.48-0.04-0.63,0.11L5.27,13.7l-2.04-2.4c1.25-0.56,4.48-1.99,5.8-2.58
		c0.38,1.03,1.57,1.79,2.96,1.79s2.58-0.75,2.96-1.79c1.32,0.59,4.56,2.03,5.82,2.58L18.72,13.7z"/>
	<path d="M12.47,16.36c0.14,0,0.27-0.05,0.37-0.16l0.69-0.75c0.19-0.2,0.17-0.52-0.03-0.71c-0.2-0.19-0.52-0.17-0.71,0.03
		l-0.69,0.75c-0.19,0.2-0.17,0.52,0.03,0.71C12.23,16.32,12.35,16.36,12.47,16.36z"/>
	<path d="M14.45,15.26l-2.69,2.96c-0.19,0.2-0.17,0.52,0.03,0.71c0.1,0.09,0.22,0.13,0.34,0.13c0.14,0,0.27-0.06,0.37-0.16
		l2.69-2.96c0.19-0.2,0.17-0.52-0.03-0.71C14.95,15.04,14.64,15.06,14.45,15.26z"/>
</g>
</svg>
