<svg id="图层_1" data-name="图层 1" xmlns="http://www.w3.org/2000/svg" viewBox="0 0 24 24"><defs><style>.cls-1,.cls-2{fill:none;stroke:#000;stroke-linecap:round;stroke-miterlimit:10;}.cls-2{stroke-width:0.5px;}</style></defs><path class="cls-1" d="M10,4.5a2,2,0,1,1,2.09,2,.09.09,0,0,0-.09.09V8"/><path class="cls-1" d="M21.47,11.07l-6.78-3a.1.1,0,0,0-.13.09A2.4,2.4,0,0,1,12,10,2.4,2.4,0,0,1,9.41,8.14a.1.1,0,0,0-.13-.09l-6.76,3a.09.09,0,0,0,0,.14l2.65,3.12a.1.1,0,0,0,.15,0l2-1.8a.1.1,0,0,1,.17.07V20.4a.09.09,0,0,0,.1.1h8.8a.1.1,0,0,0,.1-.1V12.6a.1.1,0,0,1,.17-.07l2,1.81a.1.1,0,0,0,.15,0l2.65-3.12A.09.09,0,0,0,21.47,11.07Z"/><line class="cls-2" x1="13.48" y1="15.44" x2="12.8" y2="16.19"/><line class="cls-2" x1="14.82" y1="15.6" x2="12.13" y2="18.56"/></svg>