<?xml version="1.0" encoding="utf-8"?>
<!-- Generator: Adobe Illustrator 25.0.1, SVG Export Plug-In . SVG Version: 6.00 Build 0)  -->
<svg version="1.1" id="图层_1" xmlns="http://www.w3.org/2000/svg" xmlns:xlink="http://www.w3.org/1999/xlink" x="0px" y="0px"
	 viewBox="0 0 24 24" style="enable-background:new 0 0 24 24;" xml:space="preserve">
<style type="text/css">
	.st0{fill:#FCFCFC;}
	.st1{fill:none;stroke:#9B9B9B;stroke-width:0.01;stroke-miterlimit:10;}
	.st2{fill:none;stroke:#B26D4F;stroke-width:0.05;stroke-miterlimit:10;}
	.st3{clip-path:url(#SVGID_1_);}
	.st4{fill:#303C42;}
	.st5{fill:#D3E291;}
	.st6{fill:#242424;}
	.st7{fill:none;stroke:#000000;stroke-linecap:round;stroke-miterlimit:10;}
	.st8{fill:none;stroke:#000000;stroke-width:0.8;stroke-linecap:round;stroke-miterlimit:10;}
	.st9{fill:none;stroke:#000000;stroke-miterlimit:10;}
	.st10{fill:none;stroke:#000000;stroke-width:0.5;stroke-linecap:round;stroke-miterlimit:10;}
	.st11{clip-path:url(#SVGID_4_);fill:#4D4D4D;}
	.st12{fill:#FFFFFF;}
	.st13{fill:#606060;}
	.st14{fill:#151515;}
	.st15{fill:#212121;}
	.st16{fill:#9B9B9B;}
</style>
<g>
	<path d="M21.74,15.2l-0.23-0.26h-1.71c0.04-0.33,0.07-0.66,0.07-1c0-0.8-0.12-1.58-0.35-2.34c-0.17-0.57-0.41-1.12-0.71-1.64
		c-0.33-0.58-0.74-1.12-1.21-1.6c-0.61-0.63-1.31-1.15-2.09-1.54c-0.41-0.21-0.85-0.37-1.29-0.5c-0.07-1.32-1.15-2.37-2.49-2.37
		c-1.36,0-2.47,1.1-2.5,2.45c-0.66,0.23-1.3,0.54-1.88,0.93C6.91,7.62,6.49,7.98,6.11,8.37C5.73,8.77,5.39,9.2,5.09,9.66
		c-0.42,0.66-0.74,1.38-0.94,2.13c-0.19,0.69-0.29,1.41-0.29,2.13c0,0.34,0.03,0.67,0.07,1H2.41c-0.2,0-0.39,0.1-0.5,0.26
		l-0.16,0.31l1.02,2.54c0.09,0.23,0.31,0.38,0.56,0.38h16.98c0.25,0,0.46-0.15,0.56-0.38l0.93-2.3
		C21.87,15.57,21.85,15.36,21.74,15.2z M11.73,4.93c0.7,0,1.28,0.48,1.45,1.13c-0.96-0.16-1.95-0.15-2.91,0.04
		C10.42,5.43,11.02,4.93,11.73,4.93z M20.05,17.43H3.61L3,15.93h3.34c0.28,0,0.5-0.22,0.5-0.5s-0.22-0.5-0.5-0.5h-1.4
		c-0.05-0.33-0.08-0.66-0.08-1c0-0.63,0.08-1.26,0.25-1.87c0.18-0.66,0.46-1.29,0.83-1.87c0.26-0.4,0.55-0.78,0.89-1.13
		c0.33-0.35,0.7-0.66,1.1-0.93c2.09-1.42,4.89-1.59,7.13-0.45c0.68,0.35,1.29,0.8,1.83,1.35c0.41,0.42,0.77,0.9,1.06,1.41
		c0.26,0.45,0.47,0.93,0.62,1.43c0.2,0.66,0.3,1.35,0.3,2.04c0,0.34-0.03,0.67-0.08,1h-8.17c-0.28,0-0.5,0.22-0.5,0.5
		s0.22,0.5,0.5,0.5h10.04L20.05,17.43z"/>
	<path d="M11.77,8.52c0.79,0,1.55,0.15,2.27,0.46c1.69,0.71,2.96,2.2,3.39,3.98c0.06,0.23,0.26,0.38,0.49,0.38
		c0.04,0,0.08,0,0.12-0.01c0.27-0.07,0.43-0.34,0.37-0.6c-0.51-2.08-2-3.82-3.97-4.66c-0.84-0.36-1.74-0.54-2.66-0.54
		c-0.28,0-0.5,0.22-0.5,0.5S11.49,8.52,11.77,8.52z"/>
</g>
</svg>
