<svg id="图层_1" data-name="图层 1" xmlns="http://www.w3.org/2000/svg" viewBox="0 0 24 24"><defs><style>.cls-1,.cls-2{fill:none;stroke:#000;stroke-linecap:round;stroke-miterlimit:10;}.cls-2{stroke-width:0.5px;}</style></defs><path class="cls-1" d="M10.61,15.43H21.24a.1.1,0,0,1,.09.14l-.92,2.3a.1.1,0,0,1-.09.06h-17a.11.11,0,0,1-.1-.06l-.92-2.3a.1.1,0,0,1,.09-.14H6.34"/><path class="cls-1" d="M4.5,15.35a7.35,7.35,0,0,1-.14-1.42,7.78,7.78,0,0,1,.27-2,7.5,7.5,0,0,1,.89-2,6.94,6.94,0,0,1,1-1.21,7.39,7.39,0,0,1,1.17-1,7.47,7.47,0,0,1,4.22-1.3,7.57,7.57,0,0,1,3.42.82,7.79,7.79,0,0,1,2,1.45,7.26,7.26,0,0,1,1.13,1.51,7.51,7.51,0,0,1,.84,5.22"/><path class="cls-2" d="M11.77,8a6.34,6.34,0,0,1,6.15,4.82"/><path class="cls-1" d="M9.73,6.43a2,2,0,0,1,4,0"/></svg>