<?xml version="1.0" encoding="utf-8"?>
<!-- Generator: Adobe Illustrator 25.0.1, SVG Export Plug-In . SVG Version: 6.00 Build 0)  -->
<svg version="1.1" id="图层_1" xmlns="http://www.w3.org/2000/svg" xmlns:xlink="http://www.w3.org/1999/xlink" x="0px" y="0px"
	 viewBox="0 0 24 24" style="enable-background:new 0 0 24 24;" xml:space="preserve">
<style type="text/css">
	.st0{fill:#FCFCFC;}
	.st1{fill:none;stroke:#9B9B9B;stroke-width:0.01;stroke-miterlimit:10;}
	.st2{fill:none;stroke:#B26D4F;stroke-width:0.05;stroke-miterlimit:10;}
	.st3{clip-path:url(#SVGID_1_);}
	.st4{fill:#303C42;}
	.st5{fill:#D3E291;}
	.st6{fill:#242424;}
	.st7{fill:none;stroke:#000000;stroke-linecap:round;stroke-miterlimit:10;}
	.st8{fill:none;stroke:#000000;stroke-width:0.8;stroke-linecap:round;stroke-miterlimit:10;}
	.st9{fill:none;stroke:#000000;stroke-miterlimit:10;}
	.st10{fill:none;stroke:#000000;stroke-width:0.5;stroke-linecap:round;stroke-miterlimit:10;}
	.st11{clip-path:url(#SVGID_4_);fill:#4D4D4D;}
	.st12{fill:#FFFFFF;}
	.st13{fill:#606060;}
	.st14{fill:#151515;}
	.st15{fill:#212121;}
	.st16{fill:#9B9B9B;}
</style>
<path d="M19.11,9.31V6.42c0-1.33-1.12-2.42-2.5-2.42h-9c-1.38,0-2.5,1.08-2.5,2.42v2.89c-1.14,0.18-2.02,1.17-2.02,2.36v3.95
	c0,1.32,1.08,2.4,2.4,2.4h0.62v0.48c0,0.83,0.67,1.5,1.5,1.5s1.5-0.67,1.5-1.5v-0.48h6v0.48c0,0.83,0.67,1.5,1.5,1.5
	s1.5-0.67,1.5-1.5v-0.48h0.62c1.32,0,2.4-1.08,2.4-2.4v-3.95C21.13,10.47,20.25,9.49,19.11,9.31z M7.61,5h9
	c0.83,0,1.5,0.64,1.5,1.42v2.85h-1V8c0-0.83-0.67-1.5-1.5-1.5h-7c-0.83,0-1.5,0.67-1.5,1.5v1.27h-1V6.42C6.11,5.64,6.78,5,7.61,5z
	 M16.11,9.27h-8V8c0-0.28,0.22-0.5,0.5-0.5h7c0.28,0,0.5,0.22,0.5,0.5V9.27z M8.11,18.5c0,0.28-0.22,0.5-0.5,0.5s-0.5-0.22-0.5-0.5
	v-0.48h1V18.5z M17.11,18.5c0,0.28-0.22,0.5-0.5,0.5s-0.5-0.22-0.5-0.5v-0.48h1V18.5z M20.34,15.62c0,0.88-0.72,1.6-1.6,1.6H5.49
	c-0.88,0-1.6-0.72-1.6-1.6v-3.95c0-0.88,0.72-1.6,1.6-1.6h13.25c0.88,0,1.6,0.72,1.6,1.6V15.62z"/>
</svg>
