<svg id="图层_1" data-name="图层 1" xmlns="http://www.w3.org/2000/svg" viewBox="0 0 24 24"><defs><style>.cls-1,.cls-2,.cls-3{fill:none;stroke:#000;stroke-miterlimit:10;}.cls-1,.cls-2{stroke-linecap:round;}.cls-1{stroke-width:0.8px;}</style></defs><rect class="cls-1" x="3.49" y="9.67" width="17.25" height="7.95" rx="2"/><path class="cls-2" d="M5.61,9.4v-3a2,2,0,0,1,2-1.92h9a2,2,0,0,1,2,1.92v3"/><path class="cls-2" d="M7.61,9.4V8a1,1,0,0,1,1-1h7a1,1,0,0,1,1,1V9.4"/><path class="cls-3" d="M8.61,17.5v1a1,1,0,0,1-1,1h0a1,1,0,0,1-1-1v-.88"/><path class="cls-3" d="M17.61,17.62v.88a1,1,0,0,1-1,1h0a1,1,0,0,1-1-1v-.88"/></svg>