<svg id="图层_1" data-name="图层 1" xmlns="http://www.w3.org/2000/svg" viewBox="0 0 24 24"><path d="M16.6,7.38C15.62,6.37,14,6,12,6s-3.63.37-4.62,1.38S6,10,6,12s.37,3.64,1.38,4.62S10,18,12,18s3.64-.37,4.62-1.38S18,14,18,12,17.61,8.36,16.6,7.38Zm-6.28,6.76a.66.66,0,0,1-.66.65A.65.65,0,0,1,9,14.14v-3a.66.66,0,0,1,.65-.66.67.67,0,0,1,.66.66Zm2.32,0a.66.66,0,0,1-.66.65.65.65,0,0,1-.65-.65V9.86A.65.65,0,0,1,12,9.21a.66.66,0,0,1,.66.65Zm2.32,0a.66.66,0,0,1-.66.65.65.65,0,0,1-.65-.65V12.28a.65.65,0,0,1,.65-.65.66.66,0,0,1,.66.65Z"/></svg>