<?xml version="1.0" encoding="utf-8"?>
<!-- Generator: Adobe Illustrator 25.0.1, SVG Export Plug-In . SVG Version: 6.00 Build 0)  -->
<svg version="1.1" id="图层_1" xmlns="http://www.w3.org/2000/svg" xmlns:xlink="http://www.w3.org/1999/xlink" x="0px" y="0px"
	 viewBox="0 0 24 24" style="enable-background:new 0 0 24 24;" xml:space="preserve">
<style type="text/css">
	.st0{fill:#FCFCFC;}
	.st1{fill:none;stroke:#9B9B9B;stroke-width:0.01;stroke-miterlimit:10;}
	.st2{fill:none;stroke:#B26D4F;stroke-width:0.05;stroke-miterlimit:10;}
	.st3{clip-path:url(#SVGID_1_);}
	.st4{fill:#303C42;}
	.st5{fill:#D3E291;}
	.st6{fill:#242424;}
	.st7{fill:none;stroke:#000000;stroke-linecap:round;stroke-miterlimit:10;}
	.st8{fill:none;stroke:#000000;stroke-width:0.8;stroke-linecap:round;stroke-miterlimit:10;}
	.st9{fill:none;stroke:#000000;stroke-miterlimit:10;}
	.st10{fill:none;stroke:#000000;stroke-width:0.5;stroke-linecap:round;stroke-miterlimit:10;}
	.st11{clip-path:url(#SVGID_4_);fill:#4D4D4D;}
	.st12{fill:#FFFFFF;}
	.st13{fill:#606060;}
	.st14{fill:#151515;}
	.st15{fill:#212121;}
	.st16{fill:#9B9B9B;}
</style>
<g>
	<path d="M9.39,15.23c-0.64,0.95-1.71,1.52-2.86,1.52c-1.9,0-3.44-1.55-3.44-3.44s1.54-3.44,3.44-3.44c0.28,0,0.5-0.22,0.5-0.5
		s-0.22-0.5-0.5-0.5c-2.45,0-4.44,1.99-4.44,4.44s1.99,4.44,4.44,4.44c1.48,0,2.86-0.73,3.69-1.96c0.15-0.23,0.09-0.54-0.13-0.69
		C9.86,14.94,9.55,15,9.39,15.23z"/>
	<path d="M19.13,9.06c-0.27-0.08-0.54,0.07-0.63,0.33c-0.08,0.26,0.07,0.54,0.33,0.63c1.45,0.45,2.42,1.77,2.42,3.29
		c0,1.9-1.54,3.44-3.44,3.44s-3.44-1.55-3.44-3.44c0-0.69,0.2-1.36,0.59-1.93c0.15-0.23,0.09-0.54-0.13-0.69
		c-0.23-0.15-0.54-0.09-0.69,0.13c-0.5,0.74-0.76,1.59-0.76,2.48c0,2.45,1.99,4.44,4.44,4.44s4.44-1.99,4.44-4.44
		C22.25,11.35,20.99,9.64,19.13,9.06z"/>
	<path d="M10.18,10.78l4.55-2.85l3.32,5.71c0.09,0.16,0.26,0.25,0.43,0.25c0.09,0,0.17-0.02,0.25-0.07
		c0.24-0.14,0.32-0.44,0.18-0.68l-3.32-5.71C15.45,7.18,15.21,7,14.93,6.93c-0.28-0.07-0.58-0.02-0.81,0.14L9.67,9.92L8.1,7.25h0.47
		c0.28,0,0.5-0.22,0.5-0.5s-0.22-0.5-0.5-0.5H5.3c-0.28,0-0.5,0.22-0.5,0.5s0.22,0.5,0.5,0.5h1.64l3.72,6.29
		c0.09,0.16,0.26,0.25,0.43,0.25c0.09,0,0.17-0.02,0.25-0.07c0.24-0.14,0.32-0.45,0.18-0.69L10.18,10.78z"/>
</g>
</svg>
